<svg width="1284" height="2778" viewBox="0 0 1284 2778" xmlns="http://www.w3.org/2000/svg">
  <defs>
    <linearGradient id="bgGradient" x1="0%" y1="0%" x2="100%" y2="100%">
      <stop offset="0%" style="stop-color:#ffffff;stop-opacity:1" />
      <stop offset="100%" style="stop-color:#f8f9fa;stop-opacity:1" />
    </linearGradient>
    <linearGradient id="logoGradient" x1="0%" y1="0%" x2="100%" y2="100%">
      <stop offset="0%" style="stop-color:#FF6B9D;stop-opacity:1" />
      <stop offset="100%" style="stop-color:#C147E9;stop-opacity:1" />
    </linearGradient>
  </defs>
  
  <!-- Background -->
  <rect width="1284" height="2778" fill="url(#bgGradient)"/>
  
  <!-- Logo container -->
  <g transform="translate(642, 1389)">
    <!-- Background circle -->
    <circle cx="0" cy="0" r="200" fill="url(#logoGradient)"/>
    
    <!-- Heart shape -->
    <path d="M0 100c-50-37-87-62-87-100 0-27 22-50 50-50 15 0 28 7 37 18 9-11 22-18 37-18 28 0 50 23 50 50 0 38-37 63-87 100z" fill="white"/>
    
    <!-- Arrow -->
    <path d="M-70 -30 L70 50 M50 30 L70 50 L50 70" stroke="#1e40af" stroke-width="10" fill="none" stroke-linecap="round" stroke-linejoin="round"/>
  </g>
  
  <!-- App name -->
  <text x="642" y="1700" text-anchor="middle" font-family="Arial, sans-serif" font-size="72" font-weight="bold" fill="#333">FirstMove</text>
  <text x="642" y="1780" text-anchor="middle" font-family="Arial, sans-serif" font-size="36" fill="#666">Connecting couples through mood matching</text>
</svg>